<svg width="35" height="35" viewBox="0 0 35 35" fill="none" xmlns="http://www.w3.org/2000/svg">
<g clip-path="url(#clip0_240_29)">
<path d="M0 17.4993C0 19.6399 0.385068 21.6904 1.08849 23.5862L17.5 25.108L33.9115 23.5862C34.6149 21.6904 35 19.6399 35 17.4993C35 15.3587 34.6149 13.3082 33.9115 11.4124L17.5 9.89062L1.08849 11.4124C0.385068 13.3082 0 15.3587 0 17.4993Z" fill="#FFDA44"/>
<path d="M33.9115 11.4131C31.4389 4.74913 25.0244 0 17.5 0C9.97563 0 3.56113 4.74913 1.0885 11.4131H33.9115Z" fill="#D80027"/>
<path d="M1.0885 23.5879C3.56113 30.2518 9.97563 35.001 17.5 35.001C25.0244 35.001 31.4389 30.2518 33.9115 23.5879H1.0885Z" fill="#D80027"/>
</g>
<defs>
<clipPath id="clip0_240_29">
<rect width="35" height="35" fill="white"/>
</clipPath>
</defs>
</svg>
